<?xml version="1.0" encoding="UTF-8" standalone="no"?>
<!-- Created with Inkscape (http://www.inkscape.org/) -->

<svg
   xmlns:dc="http://purl.org/dc/elements/1.1/"
   xmlns:cc="http://creativecommons.org/ns#"
   xmlns:rdf="http://www.w3.org/1999/02/22-rdf-syntax-ns#"
   xmlns:svg="http://www.w3.org/2000/svg"
   xmlns="http://www.w3.org/2000/svg"
   xmlns:sodipodi="http://sodipodi.sourceforge.net/DTD/sodipodi-0.dtd"
   xmlns:inkscape="http://www.inkscape.org/namespaces/inkscape"
   version="1.1"
   id="svg4518"
   xml:space="preserve"
   viewBox="0 0 702.32663 723.60794"
   sodipodi:docname="LbN_logo_guld.svg"
   inkscape:version="0.92.3 (2405546, 2018-03-11)"
   width="702.32666"
   height="723.60797"><metadata
     id="metadata4524"><rdf:RDF><cc:Work
         rdf:about=""><dc:format>image/svg+xml</dc:format><dc:type
           rdf:resource="http://purl.org/dc/dcmitype/StillImage" /><dc:title /></cc:Work></rdf:RDF></metadata><defs
     id="defs4522"><linearGradient
       x1="0"
       y1="0"
       x2="1"
       y2="0"
       gradientUnits="userSpaceOnUse"
       gradientTransform="matrix(0,-518.18732,-518.18732,0,400,659.2312)"
       spreadMethod="pad"
       id="linearGradient4550"><stop
         style="stop-opacity:1;stop-color:#b69853"
         offset="0"
         id="stop4540" /><stop
         style="stop-opacity:1;stop-color:#f7f1a1"
         offset="0.25"
         id="stop4542" /><stop
         style="stop-opacity:1;stop-color:#d4a74e"
         offset="0.5"
         id="stop4544" /><stop
         style="stop-opacity:1;stop-color:#f7f1a5"
         offset="0.75"
         id="stop4546" /><stop
         style="stop-opacity:1;stop-color:#97762d"
         offset="1"
         id="stop4548" /></linearGradient></defs><sodipodi:namedview
     pagecolor="#ffffff"
     bordercolor="#666666"
     borderopacity="1"
     objecttolerance="10"
     gridtolerance="10"
     guidetolerance="10"
     inkscape:pageopacity="0"
     inkscape:pageshadow="2"
     inkscape:window-width="2560"
     inkscape:window-height="1377"
     id="namedview4520"
     showgrid="false"
     inkscape:zoom="0.79499994"
     inkscape:cx="532.85508"
     inkscape:cy="241.85503"
     inkscape:window-x="-8"
     inkscape:window-y="-8"
     inkscape:window-maximized="1"
     inkscape:current-layer="g4526" /><g
     id="g4526"
     inkscape:groupmode="layer"
     inkscape:label="LbN_logo_guld"
     transform="matrix(1.3333333,0,0,-1.3333333,-1.03724,1064.9486)"><g
       id="g4528"
       transform="translate(-135.84907,127.3585)"><g
         id="g4530"><g
           id="g4536"><g
             id="g4538"><path
               d="M 136.627,671.353 V 193.627 l 171.312,-64.98 h 355.433 v 444.976 l -193.538,97.73 z m 6.001,-473.584 V 665.354 H 468.404 L 657.372,569.932 V 134.646 H 309.038 Z m 69.768,418.551 c -5.142,-0.249 -10.279,-0.762 -15.422,-0.839 v 0 c -7.323,-0.108 -14.648,0.022 -21.974,0.059 v 0 -382.859 c 2.77,-0.163 5.607,-0.326 8.236,-1.093 v 0 c 4.678,-1.364 9.207,-3.233 13.801,-4.885 v 0 c 5.192,-1.868 21.559,-7.447 22.361,-7.737 v 0 c 23.237,-8.37 46.461,-16.781 69.74,-25.032 v 0 c 2.479,-0.879 5.296,-1.159 7.945,-1.111 v 0 c 3.989,0.072 6.097,3.201 4.934,7.005 v 0 c -0.562,1.841 -1.387,3.666 -2.424,5.287 v 0 c -4.316,6.748 -8.792,13.392 -13.14,20.122 v 0 c -3.299,5.103 -1.915,10.097 3.226,13.422 v 0 c 5.139,3.323 10.661,2.729 16.158,1.916 v 0 c 1.056,-0.156 2.13,-1.97 2.688,-3.241 v 0 c 0.687,-1.566 0.4,-3.66 1.3,-5.017 v 0 c 5.506,-8.303 11.156,-16.513 16.924,-24.637 v 0 c 1.75,-2.466 4.418,-2.089 6.889,-0.28 v 0 c 1.78,1.303 4.123,2.347 6.288,2.508 v 0 c 3.035,0.225 6.089,0.18 9.143,0.136 v 0 c 1.836,-0.027 3.672,-0.054 5.505,-0.022 v 0 c 2.952,0.052 5.273,-0.888 7.162,-3.226 v 0 c 0.513,-0.635 1.898,-1.084 2.657,-0.859 v 0 c 0.798,0.239 1.646,1.295 1.892,2.16 v 0 c 0.324,1.134 0.08,2.431 0.08,3.658 v 0 c 0.845,-0.89 1.009,-1.899 1.306,-2.868 v 0 c 0.421,-1.373 0.625,-2.978 1.487,-4.016 v 0 c 1.592,-1.918 2.547,-3.848 2.203,-6.377 v 0 c -0.091,-0.667 0.178,-1.385 0.302,-2.213 v 0 c 0.348,0.231 0.465,0.265 0.48,0.326 v 0 c 0.113,0.463 0.237,0.927 0.302,1.4 v 0 c 2.523,18.53 8.906,35.549 19.914,50.741 v 0 c 9.455,13.049 20.062,24.979 33.602,33.981 v 0 c 3.771,2.507 5.194,2.191 7.65,-1.553 v 0 c 4.608,-7.024 9.095,-14.128 13.756,-21.117 v 0 c 1.352,-2.028 1.318,-3.131 -0.832,-4.695 v 0 c -14.864,-10.81 -26.87,-24.072 -34.315,-41.1 v 0 c -3.44,-7.866 -6.217,-15.891 -5.173,-24.815 v 0 c 0.302,-0.06 0.674,-0.2 1.044,-0.2 v 0 c 8.697,-0.014 17.394,-0.051 26.091,0.036 v 0 c 1.089,0.012 2.346,0.457 3.23,1.106 v 0 c 3.429,2.511 6.755,2.202 10.435,0.458 v 0 c 9.095,-4.31 18.704,-5.923 28.767,-5.202 v 0 c 10.314,0.739 20.638,1.428 30.97,1.736 v 0 c 2.572,0.076 5.152,-0.199 7.734,-0.475 v 0 c 2.312,-0.247 4.626,-0.494 6.937,-0.487 v 0 c 13.642,0.036 27.282,0.396 40.923,0.572 v 0 c 18.262,0.238 36.524,0.442 54.787,0.583 v 0 c 1.128,0.009 3.008,-0.38 3.264,-1.063 v 0 c 0.796,-2.123 2.131,-2.808 3.771,-2.89 v 0 367.227 c -1.876,-0.901 -3.757,-1.793 -5.65,-2.658 v 0 c -0.282,-0.13 -0.845,-0.102 -1.034,0.092 v 0 c -0.986,1.01 -1.898,2.095 -2.829,3.159 v 0 c -0.333,0.383 -0.58,0.885 -0.983,1.16 v 0 c -10.861,7.39 -21.739,14.759 -32.613,22.13 v 0 c -0.201,0.137 -0.416,0.254 -0.668,0.407 v 0 c -0.222,-0.239 -0.494,-0.721 -0.667,-0.688 v 0 c -1.705,0.324 -3.67,0.308 -5.035,1.196 v 0 c -5.544,3.608 -10.924,7.47 -16.309,11.317 v 0 c -1.142,0.815 -2.264,1.172 -3.647,1.181 v 0 c -4.958,0.031 -9.916,0.142 -14.873,0.256 v 0 c -1.167,0.027 -2.334,0.187 -3.604,0.295 v 0 2.618 c -2.105,0 -4.107,0.079 -6.1,-0.029 v 0 c -1.252,-0.068 -1.775,0.438 -2.213,1.546 v 0 c -0.786,1.993 -1.829,3.887 -2.652,5.869 v 0 c -0.369,0.89 -0.894,1.236 -1.787,1.081 v 0 c -0.965,-0.169 -1.531,0.277 -2.006,1.07 v 0 c -1.478,2.466 -3.049,4.877 -4.488,7.363 v 0 c -0.534,0.92 -1.179,1.296 -2.219,1.359 v 0 c -8.127,0.496 -16.253,1.021 -24.376,1.579 v 0 c -0.212,0.014 -0.432,0.009 -0.654,0.004 v 0 c -0.811,-0.019 -1.651,-0.038 -2.171,0.9 v 0 c -0.057,0.1 -0.367,0.083 -0.561,0.083 v 0 c -1.617,0.007 -3.234,0.004 -4.902,0.004 v 0 c -0.191,-0.559 -0.361,-1.056 -0.551,-1.61 v 0 c -0.765,-0.051 -1.54,-0.101 -2.675,-0.175 v 0 c 0,-1.753 0.066,-3.497 -0.016,-5.236 v 0 c -0.11,-2.344 -0.295,-4.686 -0.519,-7.023 v 0 c -0.155,-1.628 -1.726,-3.222 -3.354,-3.511 v 0 c -2.315,-0.413 -4.646,-0.751 -6.947,-1.236 v 0 c -0.572,-0.121 -1.234,-0.571 -1.538,-1.064 v 0 c -0.923,-1.497 -1.625,-3.13 -2.546,-4.63 v 0 c -0.587,-0.957 -0.56,-1.71 -0.02,-2.68 v 0 c 3.081,-5.537 6.093,-11.112 9.137,-16.67 v 0 c 3.256,-5.949 6.531,-11.888 9.779,-17.841 v 0 c 3.246,-5.949 6.472,-11.909 9.697,-17.87 v 0 c 0.738,-1.366 0.573,-1.977 -0.922,-2.36 v 0 c -5.968,-1.533 -11.926,-3.144 -17.957,-4.387 v 0 c -3.67,-0.756 -7.468,-0.899 -11.211,-1.304 v 0 c -0.432,-0.047 -0.873,-0.006 -1.324,-0.006 v 0 c -4.85,11.967 -9.674,23.867 -14.494,35.768 v 0 c -0.678,1.673 -1.132,3.485 -2.075,4.993 v 0 c -1.06,1.692 -2.935,2.727 -4.897,2.776 v 0 c -8.087,0.203 -16.176,0.217 -24.266,0.285 v 0 c -3.328,0.028 -6.657,0.03 -9.984,0.013 v 0 c -0.552,-0.003 -1.102,-0.166 -1.981,-0.31 v 0 c 0.644,-0.571 1.017,-0.904 1.251,-1.111 v 0 c -0.373,-0.428 -0.921,-0.783 -1.004,-1.225 v 0 c -0.083,-0.448 0.294,-0.982 0.474,-1.493 v 0 c -0.178,-0.626 -0.465,-1.368 -0.594,-2.136 v 0 c -0.29,-1.717 -0.608,-3.441 -0.714,-5.175 v 0 c -0.132,-2.157 -0.035,-4.328 -0.094,-6.491 v 0 c -0.016,-0.566 -0.283,-1.12 -0.373,-1.689 v 0 c -0.092,-0.574 -0.038,-1.179 -0.182,-1.735 v 0 c -0.095,-0.363 -0.439,-0.659 -0.655,-0.995 v 0 c -0.141,-0.219 -0.347,-0.451 -0.362,-0.688 v 0 c -0.075,-1.211 0.028,-2.449 -0.18,-3.633 v 0 c -0.166,-0.932 -0.638,-1.722 -0.588,-2.807 v 0 c 0.068,-1.489 -0.453,-3.015 -0.791,-4.509 v 0 c -0.245,-1.081 -0.566,-2.151 -0.937,-3.196 v 0 c -0.085,-0.238 -0.433,-0.381 -0.467,-0.382 v 0 c -0.103,-0.923 -0.137,-1.601 -0.266,-2.262 v 0 c -0.107,-0.551 -0.327,-1.081 -0.494,-1.621 v 0 c -0.115,-0.373 -0.112,-0.962 -0.353,-1.087 v 0 c -1.467,-0.758 -1.178,-2.024 -1.056,-3.248 v 0 c 0.114,-1.14 -0.58,-1.374 -1.179,-1.315 v 0 c -0.086,-1.331 0.086,-2.63 -0.312,-3.72 v 0 c -0.376,-1.03 0.126,-2.745 -1.664,-2.996 v 0 c 0.119,-0.905 0.245,-1.863 0.365,-2.774 v 0 c -0.87,-0.083 -1.658,-0.364 -2.328,-0.191 v 0 c -7.044,1.823 -14.069,3.721 -21.101,5.594 v 0 c -4.144,1.106 -8.29,2.204 -12.434,3.311 v 0 c -0.414,0.11 -0.819,0.255 -1.305,0.408 v 0 c 0.328,0.901 0.625,1.716 0.939,2.577 v 0 c 0.225,-0.171 0.403,-0.305 0.769,-0.581 v 0 c 0.147,0.573 0.271,1.052 0.442,1.719 v 0 c 0.246,-0.379 0.423,-0.65 0.655,-1.009 v 0 c 0.548,0.728 1.113,1.368 -0.157,1.863 v 0 c 0.759,1.369 1.543,2.62 2.123,3.959 v 0 c 0.128,0.299 -0.46,0.908 -0.805,1.531 v 0 c 0.281,0.138 0.714,0.352 1.295,0.64 v 0 c -0.645,1.306 -0.064,2.374 0.476,3.661 v 0 c 0.81,1.928 0.961,4.135 1.379,6.226 v 0 c 1.274,6.366 2.673,12.712 3.755,19.11 v 0 c 0.528,3.12 0.458,6.341 0.668,9.516 v 0 c 0.073,1.122 0.185,2.24 0.258,3.362 v 0 c 0.129,1.998 0.122,1.999 -1.368,2.65 v 0 c 0.482,10.164 -0.262,20.203 -0.447,30.244 v 0 l -2.006,6.874 c -1.626,-2.387 -3.223,-4.593 -4.663,-6.897 v 0 c -0.842,-1.346 -1.822,-1.988 -3.451,-1.777 v 0 c -1.159,0.15 -2.354,0.03 -3.533,0.029 v 0 c -1.974,-0.003 -1.974,-0.004 -1.963,-2.095 v 0 c -1.79,0 -3.587,-0.004 -5.383,0.001 v 0 c -2.8,0.007 -5.6,0.028 -8.4,0.032 v 0 c -19.111,0.029 -38.221,0.039 -57.332,0.088 v 0 c -11.837,0.029 -23.675,0.111 -35.512,0.175 v 0 c -1.752,0.01 -3.396,2.628 -2.679,4.241 v 0 c 0.443,0.998 -0.384,4.567 -1.275,5.388 v 0 c -1.243,1.147 -2.427,2.371 -4.422,1.944 v 0 c -0.406,-0.088 -1.309,0.393 -1.357,0.707 v 0 c -0.175,1.158 -0.845,1.215 -1.766,1.208 v 0 c -3.879,-0.032 -7.758,-0.014 -11.824,-0.014 v 0 c 0.097,-2.279 -1.502,-1.912 -2.912,-1.879 v 0 c -0.265,0.006 -0.53,0.004 -0.795,0.002 v 0 c -0.472,-0.004 -0.945,-0.007 -1.413,0.038 v 0 c -0.36,0.035 -0.975,0.23 -1.005,0.424 v 0 c -0.197,1.295 -0.957,1.52 -1.787,1.52 v 0 c -0.353,0 -0.719,-0.041 -1.06,-0.057 m 77.887,-30.313 c 0,0 2.704,-9.523 3.141,-18.741 v 0 l 0.002,0.004 c 0,-4.029 4.164,-4.164 4.164,-4.164 v 0 l -0.004,-0.003 c 9.219,-0.437 16.822,-3.141 16.822,-3.141 v 0 c 0,0 -7.603,-2.704 -16.822,-3.141 v 0 l 0.004,-0.002 c -4.029,0 -4.164,-4.165 -4.164,-4.165 v 0 l -0.002,0.005 c -0.437,-9.219 -3.141,-19.668 -3.141,-19.668 v 0 c 0,0 -2.704,10.449 -3.141,19.668 v 0 l -0.002,-0.005 c 0,4.03 -4.165,4.165 -4.165,4.165 v 0 l 0.006,0.002 c -9.22,0.437 -19.241,3.141 -19.241,3.141 v 0 c 0,0 10.021,2.704 19.241,3.141 v 0 l -0.006,0.003 c 4.03,0 4.165,4.164 4.165,4.164 v 0 l 0.002,-0.004 c 0.437,9.218 3.141,18.741 3.141,18.741 m -75.088,-13.769 c 0,0 0.533,-1.879 0.62,-3.699 v 0 10e-4 c 0,-0.796 0.822,-0.822 0.822,-0.822 v 0 l -0.001,-10e-4 c 1.819,-0.086 3.32,-0.62 3.32,-0.62 v 0 c 0,0 -1.501,-0.534 -3.32,-0.62 v 0 h 0.001 c -0.795,0 -0.822,-0.823 -0.822,-0.823 v 0 10e-4 c -0.087,-1.819 -0.62,-3.881 -0.62,-3.881 v 0 c 0,0 -0.534,2.062 -0.621,3.881 v 0 -10e-4 c 0,0.796 -0.821,0.823 -0.821,0.823 v 0 h 0.001 c -1.82,0.086 -3.798,0.62 -3.798,0.62 v 0 c 0,0 1.978,0.534 3.798,0.62 v 0 l -0.001,10e-4 c 0.794,0 0.821,0.822 0.821,0.822 v 0 -10e-4 c 0.087,1.82 0.621,3.699 0.621,3.699 m 322.406,-12.739 c 0,0 0.853,-3.007 0.991,-5.918 v 0 10e-4 c 0,-1.273 1.316,-1.315 1.316,-1.315 v 0 h -0.002 c 2.912,-0.139 5.313,-0.993 5.313,-0.993 v 0 c 0,0 -2.401,-0.853 -5.313,-0.992 v 0 h 0.002 c -1.272,0 -1.316,-1.315 -1.316,-1.315 v 0 0.002 c -0.138,-2.912 -0.991,-6.211 -0.991,-6.211 v 0 c 0,0 -0.854,3.299 -0.992,6.211 v 0 l -0.002,-0.002 c 0,1.272 -1.314,1.315 -1.314,1.315 v 0 h 0.002 c -2.913,0.139 -6.076,0.992 -6.076,0.992 v 0 c 0,0 3.163,0.854 6.076,0.993 v 0 h -0.002 c 1.273,0 1.314,1.315 1.314,1.315 v 0 l 0.002,-10e-4 c 0.138,2.911 0.992,5.918 0.992,5.918 M 246.569,536.641 c 0,0 0.854,-3.007 0.992,-5.918 v 0 0.002 c 0,-1.273 1.316,-1.316 1.316,-1.316 v 0 h -0.002 c 2.912,-0.139 5.313,-0.993 5.313,-0.993 v 0 c 0,0 -2.401,-0.853 -5.313,-0.991 v 0 l 0.002,-0.002 c -1.273,0 -1.316,-1.315 -1.316,-1.315 v 0 0.002 c -0.138,-2.911 -0.992,-6.211 -0.992,-6.211 v 0 c 0,0 -0.854,3.3 -0.992,6.211 v 0 -0.002 c 0,1.273 -1.316,1.315 -1.316,1.315 v 0 l 0.003,0.002 c -2.913,0.138 -6.076,0.991 -6.076,0.991 v 0 c 0,0 3.163,0.854 6.076,0.993 v 0 h -0.003 c 1.272,0 1.316,1.316 1.316,1.316 v 0 -0.002 c 0.138,2.911 0.992,5.918 0.992,5.918 m -31.337,-14.43 c 0,0 0.619,-2.177 0.719,-4.285 v 0 10e-4 c 0,-0.922 0.953,-0.953 0.953,-0.953 v 0 h -0.002 c 2.108,-0.1 3.846,-0.718 3.846,-0.718 v 0 c 0,0 -1.738,-0.618 -3.846,-0.718 v 0 h 0.002 c -0.922,0 -0.953,-0.952 -0.953,-0.952 v 0 10e-4 c -0.1,-2.108 -0.719,-4.498 -0.719,-4.498 v 0 c 0,0 -0.618,2.39 -0.717,4.498 v 0 l -10e-4,-10e-4 c 0,0.92 -0.952,0.952 -0.952,0.952 v 0 h 10e-4 c -2.108,0.1 -4.398,0.718 -4.398,0.718 v 0 c 0,0 2.29,0.618 4.398,0.718 v 0 h -10e-4 c 0.921,0 0.952,0.953 0.952,0.953 v 0 l 10e-4,-10e-4 c 0.099,2.108 0.717,4.285 0.717,4.285 M 569.494,508.48 c 0,0 2.153,-7.581 2.5,-14.922 v 0 l 0.002,0.004 c 0,-3.208 3.316,-3.316 3.316,-3.316 v 0 l -0.004,-0.002 c 7.34,-0.348 13.393,-2.501 13.393,-2.501 v 0 c 0,0 -6.053,-2.153 -13.393,-2.5 v 0 l 0.004,-0.002 c -3.208,0 -3.316,-3.315 -3.316,-3.315 v 0 l -0.002,0.003 c -0.347,-7.34 -2.5,-15.659 -2.5,-15.659 v 0 c 0,0 -2.153,8.319 -2.501,15.659 v 0 l -0.002,-0.003 c 0,3.208 -3.317,3.315 -3.317,3.315 v 0 l 0.006,0.002 c -7.341,0.347 -15.319,2.5 -15.319,2.5 v 0 c 0,0 7.978,2.153 15.319,2.501 v 0 l -0.006,0.002 c 3.21,0 3.317,3.316 3.317,3.316 v 0 l 0.002,-0.004 c 0.348,7.341 2.501,14.922 2.501,14.922 m -40.037,0 c 0,0 0.534,-1.879 0.62,-3.699 v 0 l 10e-4,10e-4 c 0,-0.795 0.821,-0.822 0.821,-0.822 v 0 h -10e-4 c 1.821,-0.087 3.32,-0.621 3.32,-0.621 v 0 c 0,0 -1.499,-0.533 -3.32,-0.62 v 0 h 10e-4 c -0.795,0 -0.821,-0.821 -0.821,-0.821 v 0 h -10e-4 c -0.086,-1.819 -0.62,-3.881 -0.62,-3.881 v 0 c 0,0 -0.533,2.062 -0.619,3.881 v 0 h -10e-4 c 0,0.795 -0.822,0.821 -0.822,0.821 v 0 h 10e-4 c -1.819,0.087 -3.797,0.62 -3.797,0.62 v 0 c 0,0 1.978,0.534 3.797,0.621 v 0 h -10e-4 c 0.795,0 0.822,0.822 0.822,0.822 v 0 l 10e-4,-10e-4 c 0.086,1.82 0.619,3.699 0.619,3.699 M 343.596,489.543 h 38.168 v -74.936 l -20.659,-4.76 h 20.659 4.226 50.269 v -32.442 -28.871 c 0,-12.722 -2.688,-22.936 -8.058,-30.64 v 0 c -5.374,-7.706 -13.571,-11.557 -24.598,-11.557 v 0 h -60.007 z m 106.868,-1.063 40.108,-20.943 14.175,-66.204 v 58.802 l 33.588,-17.538 c 0.991,-0.517 1.611,-1.542 1.611,-2.66 v 0 -130.599 c 0,-0.71 -0.257,-1.354 -0.669,-1.867 v 0 l 0.669,-1.134 -0.669,1.134 c -0.55,-0.686 -1.384,-1.134 -2.331,-1.134 v 0 h -32.199 v 49.759 l 24.199,-31.135 -16.649,28.185 -26.21,44.37 V 306.337 H 450.464 Z M 260.053,309.338 v 158.245 c 0,1.118 0.621,2.142 1.611,2.66 v 0 l 34.861,18.202 v -145.64 l -20.328,-5.509 h 20.328 37.532 v -30.959 h -71.004 c -1.65,0 -3,1.35 -3,3.001 m -56.346,161.807 c 0,0 0.747,-2.631 0.867,-5.179 v 0 l 10e-4,10e-4 c 0,-1.113 1.152,-1.15 1.152,-1.15 v 0 l -0.002,-0.001 c 2.547,-0.121 4.648,-0.868 4.648,-0.868 v 0 c 0,0 -2.101,-0.747 -4.648,-0.868 v 0 h 0.002 c -1.114,0 -1.152,-1.151 -1.152,-1.151 v 0 l -10e-4,0.001 c -0.12,-2.547 -0.867,-5.435 -0.867,-5.435 v 0 c 0,0 -0.747,2.888 -0.868,5.435 v 0 l -0.001,-0.001 c 0,1.114 -1.151,1.151 -1.151,1.151 v 0 h 0.002 c -2.548,0.121 -5.316,0.868 -5.316,0.868 v 0 c 0,0 2.768,0.747 5.316,0.868 v 0 l -0.002,0.001 c 1.114,0 1.151,1.15 1.151,1.15 v 0 l 0.001,-10e-4 c 0.121,2.548 0.868,5.179 0.868,5.179 m 370.206,-76.429 c 0,0 0.854,-3.008 0.993,-5.919 v 0 0.002 c 0,-1.273 1.314,-1.316 1.314,-1.316 v 0 l -10e-4,-10e-4 c 2.912,-0.137 5.312,-0.991 5.312,-0.991 v 0 c 0,0 -2.4,-0.854 -5.312,-0.992 v 0 l 10e-4,-0.001 c -1.272,0 -1.314,-1.314 -1.314,-1.314 v 0 10e-4 c -0.139,-2.912 -0.993,-6.211 -0.993,-6.211 v 0 c 0,0 -0.853,3.299 -0.992,6.211 v 0 l -0.001,-10e-4 c 0,1.272 -1.315,1.314 -1.315,1.314 v 0 l 10e-4,0.001 c -2.91,0.138 -6.075,0.992 -6.075,0.992 v 0 c 0,0 3.165,0.854 6.075,0.991 v 0 l -10e-4,10e-4 c 1.273,0 1.315,1.316 1.315,1.316 v 0 l 0.001,-0.002 c 0.139,2.911 0.992,5.919 0.992,5.919 M 220.195,371.158 c 0,0 0.534,-1.879 0.619,-3.699 v 0 l 0.001,10e-4 c 0,-0.795 0.823,-0.822 0.823,-0.822 v 0 l -0.002,-10e-4 c 1.82,-0.085 3.32,-0.62 3.32,-0.62 v 0 c 0,0 -1.5,-0.532 -3.32,-0.619 v 0 l 0.002,-0.001 c -0.796,0 -0.823,-0.821 -0.823,-0.821 v 0 l -0.001,10e-4 c -0.085,-1.82 -0.619,-3.883 -0.619,-3.883 v 0 c 0,0 -0.534,2.063 -0.62,3.883 v 0 l -10e-4,-10e-4 c 0,0.795 -0.822,0.821 -0.822,0.821 v 0 l 10e-4,0.001 c -1.82,0.087 -3.797,0.619 -3.797,0.619 v 0 c 0,0 1.977,0.535 3.797,0.62 v 0 l -10e-4,10e-4 c 0.796,0 0.822,0.822 0.822,0.822 v 0 l 10e-4,-10e-4 c 0.086,1.82 0.62,3.699 0.62,3.699 m 386.999,-20.377 c 0,0 0.747,-2.63 0.868,-5.178 v 0 l 10e-4,10e-4 c 0,-1.114 1.151,-1.151 1.151,-1.151 v 0 l -0.001,-10e-4 c 2.547,-0.12 4.647,-0.867 4.647,-0.867 v 0 c 0,0 -2.1,-0.747 -4.647,-0.869 v 0 l 0.001,-0.001 c -1.114,0 -1.151,-1.15 -1.151,-1.15 v 0 l -10e-4,10e-4 c -0.121,-2.547 -0.868,-5.434 -0.868,-5.434 v 0 c 0,0 -0.747,2.887 -0.867,5.434 v 0 l -10e-4,-10e-4 c 0,1.114 -1.15,1.15 -1.15,1.15 v 0 l 10e-4,0.001 c -2.548,0.122 -5.317,0.869 -5.317,0.869 v 0 c 0,0 2.769,0.747 5.317,0.867 v 0 l -10e-4,10e-4 c 1.113,0 1.15,1.151 1.15,1.151 v 0 l 10e-4,-10e-4 c 0.12,2.548 0.867,5.178 0.867,5.178 M 229.459,312.727 c 0,0 3.842,-13.533 4.463,-26.634 v 0 l 0.003,0.008 c 0,-5.727 5.919,-5.918 5.919,-5.918 v 0 l -0.008,-0.003 c 13.101,-0.622 23.904,-4.464 23.904,-4.464 v 0 c 0,0 -10.803,-3.842 -23.904,-4.464 v 0 l 0.008,-0.003 c -5.727,0 -5.919,-5.918 -5.919,-5.918 v 0 l -0.003,0.007 c -0.621,-13.1 -4.463,-27.949 -4.463,-27.949 v 0 c 0,0 -3.842,14.849 -4.464,27.949 v 0 l -0.003,-0.007 c 0,5.726 -5.918,5.918 -5.918,5.918 v 0 l 0.007,0.003 c -13.101,0.622 -27.341,4.464 -27.341,4.464 v 0 c 0,0 14.24,3.842 27.341,4.464 v 0 l -0.007,0.003 c 5.726,0 5.918,5.918 5.918,5.918 v 0 l 0.003,-0.008 c 0.622,13.101 4.464,26.634 4.464,26.634 m -32.705,0 c 0,0 0.854,-3.007 0.992,-5.92 v 0 l 0.001,0.003 c 0,-1.273 1.316,-1.316 1.316,-1.316 v 0 h -0.003 c 2.913,-0.138 5.313,-0.993 5.313,-0.993 v 0 c 0,0 -2.4,-0.853 -5.313,-0.991 v 0 l 0.003,-10e-4 c -1.273,0 -1.316,-1.315 -1.316,-1.315 v 0 l -0.001,0.002 c -0.138,-2.912 -0.992,-6.211 -0.992,-6.211 v 0 c 0,0 -0.853,3.299 -0.991,6.211 v 0 l -0.001,-0.002 c 0,1.272 -1.315,1.315 -1.315,1.315 v 0 l 0.002,10e-4 c -2.912,0.138 -6.076,0.991 -6.076,0.991 v 0 c 0,0 3.164,0.855 6.076,0.993 v 0 h -0.002 c 1.272,0 1.315,1.316 1.315,1.316 v 0 l 0.001,-0.003 c 0.138,2.913 0.991,5.92 0.991,5.92 M 573.77,280.289 c 0,0 0.533,-1.879 0.62,-3.698 v 0 l 10e-4,10e-4 c 0,-0.796 0.821,-0.822 0.821,-0.822 v 0 l -10e-4,-0.002 c 1.82,-0.085 3.32,-0.618 3.32,-0.618 v 0 c 0,0 -1.5,-0.535 -3.32,-0.62 v 0 l 10e-4,-0.002 c -0.795,0 -0.821,-0.821 -0.821,-0.821 v 0 l -10e-4,0.001 c -0.087,-1.821 -0.62,-3.882 -0.62,-3.882 v 0 c 0,0 -0.534,2.061 -0.619,3.882 v 0 l -10e-4,-0.001 c 0,0.795 -0.823,0.821 -0.823,0.821 v 0 l 10e-4,0.002 c -1.819,0.085 -3.797,0.62 -3.797,0.62 v 0 c 0,0 1.978,0.533 3.797,0.618 v 0 l -10e-4,0.002 c 0.796,0 0.823,0.822 0.823,0.822 v 0 l 10e-4,-10e-4 c 0.085,1.819 0.619,3.698 0.619,3.698 M 299.842,269.826 c 0,0 0.618,-2.178 0.718,-4.285 v 0 10e-4 c 0,-0.921 0.953,-0.952 0.953,-0.952 v 0 h -10e-4 c 2.108,-0.1 3.845,-0.718 3.845,-0.718 v 0 c 0,0 -1.737,-0.618 -3.845,-0.718 v 0 h 10e-4 c -0.921,0 -0.953,-0.953 -0.953,-0.953 v 0 10e-4 c -0.1,-2.107 -0.718,-4.496 -0.718,-4.496 v 0 c 0,0 -0.618,2.389 -0.718,4.496 v 0 l -0.001,-10e-4 c 0,0.921 -0.951,0.953 -0.951,0.953 v 0 h 10e-4 c -2.108,0.1 -4.4,0.718 -4.4,0.718 v 0 c 0,0 2.292,0.618 4.4,0.718 v 0 h -10e-4 c 0.92,0 0.951,0.952 0.951,0.952 v 0 l 0.001,-10e-4 c 0.1,2.107 0.718,4.285 0.718,4.285 m 218.861,-17.272 c 0,0 0.619,-2.177 0.719,-4.284 v 0 0 c 0,-0.92 0.952,-0.952 0.952,-0.952 v 0 h -10e-4 c 2.108,-0.101 3.846,-0.717 3.846,-0.717 v 0 c 0,0 -1.738,-0.618 -3.846,-0.719 v 0 h 10e-4 c -0.921,0 -0.952,-0.952 -0.952,-0.952 v 0 0 c -0.1,-2.106 -0.719,-4.495 -0.719,-4.495 v 0 c 0,0 -0.618,2.389 -0.718,4.495 v 0 h -10e-4 c 0,0.92 -0.951,0.952 -0.951,0.952 v 0 h 10e-4 c -2.108,0.101 -4.399,0.719 -4.399,0.719 v 0 c 0,0 2.291,0.616 4.399,0.717 v 0 h -10e-4 c 0.921,0 0.951,0.952 0.951,0.952 v 0 h 10e-4 c 0.1,2.107 0.718,4.284 0.718,4.284 m 57.162,-23.709 c 0,0 0.747,-2.631 0.868,-5.178 v 0 0.001 c 0,-1.113 1.152,-1.15 1.152,-1.15 v 0 l -0.002,-0.001 c 2.548,-0.122 4.648,-0.869 4.648,-0.869 v 0 c 0,0 -2.1,-0.747 -4.648,-0.867 v 0 l 0.002,-0.001 c -1.114,0 -1.152,-1.15 -1.152,-1.15 v 0 0.001 c -0.121,-2.548 -0.868,-5.435 -0.868,-5.435 v 0 c 0,0 -0.747,2.887 -0.868,5.435 v 0 -0.001 c 0,1.113 -1.152,1.15 -1.152,1.15 v 0 l 0.002,0.001 c -2.547,0.12 -5.316,0.867 -5.316,0.867 v 0 c 0,0 2.769,0.747 5.316,0.869 v 0 l -0.002,0.001 c 1.114,0 1.152,1.15 1.152,1.15 v 0 -0.001 c 0.121,2.547 0.868,5.178 0.868,5.178 m -75.863,-6.278 c 0,0 0.853,-3.008 0.992,-5.919 v 0 l 10e-4,0.003 c 0,-1.273 1.315,-1.316 1.315,-1.316 v 0 l -10e-4,-0.001 c 2.91,-0.138 5.311,-0.991 5.311,-0.991 v 0 c 0,0 -2.401,-0.855 -5.311,-0.993 v 0 h 10e-4 c -1.273,0 -1.315,-1.315 -1.315,-1.315 v 0 l -10e-4,0.001 c -0.139,-2.911 -0.992,-6.21 -0.992,-6.21 v 0 c 0,0 -0.854,3.299 -0.993,6.21 v 0 -0.001 c 0,1.272 -1.314,1.315 -1.314,1.315 v 0 h 0.001 c -2.911,0.138 -6.076,0.993 -6.076,0.993 v 0 c 0,0 3.165,0.853 6.076,0.991 v 0 l -0.001,0.001 c 1.272,0 1.314,1.316 1.314,1.316 v 0 -0.003 c 0.139,2.911 0.993,5.919 0.993,5.919 m -80,365.246 c -1.947,-0.234 -4.027,0.08 -5.784,-1.168 v 0 c -0.229,-0.162 -0.599,-0.161 -0.906,-0.171 v 0 c 0,0 -1.427,-2.639 -1.538,-3.753 v 0 c -0.227,-2.28 -0.234,-4.586 -0.281,-6.882 v 0 c -0.031,-1.563 -0.416,-3.26 1.466,-4.211 v 0 c 0.331,-0.169 0.474,-0.709 0.743,-1.141 v 0 c 6.488,0 13.016,-0.015 19.543,0.016 v 0 c 0.214,10e-4 0.446,-0.021 0.68,-0.042 v 0 c 1.042,-0.094 2.141,-0.189 2.039,1.663 v 0 c -0.006,0.1 0.189,0.208 0.283,0.318 v 0 c 2.034,2.333 3.329,4.795 2.967,8.146 v 0 c -0.276,2.571 -2.085,3.865 -3.375,5.631 v 0 c -0.072,0.097 -0.254,0.152 -0.387,0.159 v 0 c -1.41,0.076 -2.819,0.139 -4.511,0.219 v 0 c 1.433,-2.529 1.101,-4.913 0.341,-7.427 v 0 c -1.009,-3.347 -2.327,-5.709 -4.129,-6.165 v 0 c 0.257,0.538 0.449,0.948 0.648,1.353 v 0 c 1.885,3.827 2.642,7.702 0.533,11.712 v 0 c -0.336,0.639 -2.313,1.664 -2.974,1.571 v 0 c -0.802,-0.112 -1.62,-0.221 -2.424,-0.18 v 0 c -0.866,0.044 -1.746,0.372 -2.592,0.372 v 0 c -0.115,0 -0.229,-0.006 -0.342,-0.02 m -20.923,-57.012 c 0,10e-4 10e-4,0.003 10e-4,0.005 v 0 c -0.004,-0.004 -0.004,-0.005 -10e-4,-0.005 m -14.753,-172.708 -17.779,-28.252 23.38,18.083 23.382,38.421 z M 339.152,208.655 c -4.239,-0.184 -6.348,-2.847 -6.355,-7.12 v 0 c -0.004,-2.735 0.018,-5.471 0.045,-8.206 v 0 c 0.002,-0.172 0.147,-0.343 0.281,-0.635 v 0 c 1.597,0.781 3.093,1.306 4.327,2.195 v 0 c 0.72,0.519 1.259,1.564 1.471,2.468 v 0 c 1.008,4.303 3.652,6.792 7.993,7.059 v 0 c -1.162,-0.849 -2.194,-1.493 -3.1,-2.283 v 0 c -4.192,-3.653 -3.603,-8.913 1.652,-10.455 v 0 c 4.71,-1.379 9.792,-1.489 15.128,-2.217 v 0 c 0,5.846 0.129,10.804 -0.056,15.75 v 0 c -0.087,2.353 -2.117,3.335 -4.132,3.397 v 0 c -3.392,0.106 -6.789,0.19 -10.184,0.19 v 0 c -2.358,0 -4.716,-0.04 -7.07,-0.143"
               style="fill:url(#linearGradient4550);stroke:none"
               id="path4552"
               inkscape:connector-curvature="0" /></g></g></g></g></g></svg>